<svg xmlns="http://www.w3.org/2000/svg" viewBox="0 0 100 100">
  <defs>
    <linearGradient id="shamrock-grad" x1="0%" y1="0%" x2="100%" y2="100%">
      <stop offset="0%" stop-color="#34d399"/>
      <stop offset="50%" stop-color="#10b981"/>
      <stop offset="100%" stop-color="#047857"/>
    </linearGradient>
    <filter id="shadow" x="-20%" y="-20%" width="140%" height="140%">
      <feDropShadow dx="0" dy="2" stdDeviation="3" flood-opacity="0.35"/>
    </filter>
  </defs>
  <!-- Background circle for sharp contrast on both light and dark browser tabs -->
  <circle cx="50" cy="50" r="48" fill="#022c22" stroke="#10b981" stroke-width="2.5" />
  <!-- Shamrock Vector Leaves -->
  <g fill="url(#shamrock-grad)" filter="url(#shadow)" stroke="#064e3b" stroke-width="1.2" stroke-linejoin="round">
    <!-- Top Leaf -->
    <path d="M50 48 C42 34 29 27 34 14 C38 4 48 9 50 22 C52 9 62 4 66 14 C71 27 58 34 50 48 Z"/>
    <!-- Bottom Left Leaf -->
    <path d="M48 50 C34 42 27 29 14 34 C4 38 9 48 22 50 C9 52 4 62 14 66 C27 71 34 58 48 50 Z"/>
    <!-- Bottom Right Leaf -->
    <path d="M52 50 C66 42 73 29 86 34 C96 38 91 48 78 50 C91 52 96 62 86 66 C73 71 66 58 52 50 Z"/>
    <!-- Stem -->
    <path d="M49 48 C49 68 44 80 34 88 C40 89 46 86 52 76 C55 68 53 54 52 48 Z"/>
  </g>
</svg>
